<svg width="30" height="30" viewBox="0 0 30 30" fill="none" xmlns="http://www.w3.org/2000/svg">
<path d="M14.9997 10.75C13.8725 10.75 12.7915 11.1978 11.9945 11.9948C11.1974 12.7919 10.7497 13.8729 10.7497 15C10.7497 16.1272 11.1974 17.2082 11.9945 18.0052C12.7915 18.8023 13.8725 19.25 14.9997 19.25C16.1268 19.25 17.2078 18.8023 18.0049 18.0052C18.8019 17.2082 19.2497 16.1272 19.2497 15C19.2497 13.8729 18.8019 12.7919 18.0049 11.9948C17.2078 11.1978 16.1268 10.75 14.9997 10.75ZM14.9997 7.91671C16.8783 7.91671 18.68 8.66299 20.0083 9.99137C21.3367 11.3198 22.083 13.1214 22.083 15C22.083 16.8787 21.3367 18.6803 20.0083 20.0087C18.68 21.3371 16.8783 22.0834 14.9997 22.0834C13.1211 22.0834 11.3194 21.3371 9.991 20.0087C8.66262 18.6803 7.91634 16.8787 7.91634 15C7.91634 13.1214 8.66262 11.3198 9.991 9.99137C11.3194 8.66299 13.1211 7.91671 14.9997 7.91671ZM24.208 7.56254C24.208 8.0322 24.0214 8.48261 23.6893 8.81471C23.3573 9.1468 22.9068 9.33337 22.4372 9.33337C21.9675 9.33337 21.5171 9.1468 21.185 8.81471C20.8529 8.48261 20.6663 8.0322 20.6663 7.56254C20.6663 7.09289 20.8529 6.64247 21.185 6.31037C21.5171 5.97828 21.9675 5.79171 22.4372 5.79171C22.9068 5.79171 23.3573 5.97828 23.6893 6.31037C24.0214 6.64247 24.208 7.09289 24.208 7.56254ZM14.9997 3.66671C11.4948 3.66671 10.9225 3.67662 9.29193 3.74887C8.18126 3.80129 7.43609 3.95004 6.74476 4.21921C6.12992 4.45721 5.68651 4.74196 5.21476 5.21512C4.77135 5.64352 4.43042 6.16653 4.21742 6.74512C3.94826 7.43929 3.79951 8.18304 3.74851 9.29229C3.67484 10.8563 3.66634 11.4031 3.66634 15C3.66634 18.5049 3.67626 19.0772 3.74851 20.7078C3.80092 21.817 3.94967 22.5636 4.21742 23.2535C4.45826 23.8698 4.74159 24.3132 5.21193 24.7835C5.68934 25.2595 6.13276 25.5443 6.74192 25.7795C7.44176 26.05 8.18693 26.2002 9.29193 26.2512C10.8559 26.3249 11.4028 26.3334 14.9997 26.3334C18.5045 26.3334 19.0768 26.3235 20.7074 26.2512C21.8153 26.1988 22.5618 26.05 23.2532 25.7823C23.8666 25.5429 24.3128 25.2581 24.7832 24.7878C25.2606 24.3104 25.5453 23.867 25.7805 23.2578C26.0497 22.5594 26.1998 21.8128 26.2508 20.7078C26.3245 19.1438 26.333 18.597 26.333 15C26.333 11.4952 26.3231 10.9229 26.2508 9.29229C26.1984 8.18446 26.0497 7.43646 25.7805 6.74512C25.567 6.16713 25.2267 5.64432 24.7846 5.21512C24.3564 4.77149 23.8333 4.43053 23.2546 4.21779C22.5604 3.94862 21.8153 3.79987 20.7074 3.74887C19.1434 3.67521 18.5966 3.66671 14.9997 3.66671ZM14.9997 0.833374C18.8488 0.833374 19.329 0.847541 20.8392 0.918374C22.3479 0.989207 23.375 1.22579 24.2788 1.57712C25.2138 1.93696 26.0015 2.42429 26.7892 3.21054C27.5095 3.91873 28.0669 4.77537 28.4226 5.72087C28.7725 6.62329 29.0105 7.65179 29.0813 9.16054C29.1479 10.6707 29.1663 11.151 29.1663 15C29.1663 18.8491 29.1522 19.3294 29.0813 20.8395C29.0105 22.3483 28.7725 23.3754 28.4226 24.2792C28.068 25.2252 27.5104 26.0821 26.7892 26.7895C26.0808 27.5097 25.2242 28.067 24.2788 28.423C23.3764 28.7729 22.3479 29.0109 20.8392 29.0817C19.329 29.1483 18.8488 29.1667 14.9997 29.1667C11.1506 29.1667 10.6703 29.1525 9.16017 29.0817C7.65142 29.0109 6.62434 28.7729 5.72051 28.423C4.77464 28.068 3.91784 27.5105 3.21017 26.7895C2.48967 26.0815 1.93224 25.2248 1.57676 24.2792C1.22542 23.3768 0.988841 22.3483 0.918008 20.8395C0.851424 19.3294 0.833008 18.8491 0.833008 15C0.833008 11.151 0.847174 10.6707 0.918008 9.16054C0.988841 7.65037 1.22542 6.62471 1.57676 5.72087C1.93126 4.77479 2.48881 3.91791 3.21017 3.21054C3.91804 2.48978 4.77478 1.93232 5.72051 1.57712C6.62434 1.22579 7.65001 0.989207 9.16017 0.918374C10.6703 0.851791 11.1506 0.833374 14.9997 0.833374Z" fill="white"/>
</svg>
