<svg width="135" height="24" viewBox="0 0 135 24" fill="none" xmlns="http://www.w3.org/2000/svg">
<path d="M0 19.4805V0.909092H7.37776C12.4516 0.909092 14.9885 3.0303 14.9885 7.27273V7.37662C14.9885 9.31602 14.3586 10.8139 13.0988 11.8701C11.8389 12.9091 10.0182 13.4286 7.63663 13.4286H5.85043V19.4805H0ZM5.85043 9.48052H7.06712C8.63759 9.48052 9.42282 8.78788 9.42282 7.4026V7.2987C9.42282 5.96537 8.64622 5.2987 7.093 5.2987H5.85043V9.48052Z" fill="black"/>
<path d="M23.0531 19.8182C20.8268 19.8182 19.0147 19.2035 17.6168 17.974C16.2362 16.7446 15.5459 15.039 15.5459 12.8571V12.6494C15.5459 10.5022 16.2621 8.77922 17.6945 7.48052C19.1442 6.1645 20.9303 5.50649 23.0531 5.50649C25.0895 5.50649 26.7722 6.1039 28.101 7.2987C29.4299 8.49351 30.0943 10.2511 30.0943 12.5714V13.8182H20.6974C20.7664 14.632 21.0253 15.2554 21.474 15.6883C21.9227 16.1212 22.5094 16.3377 23.2343 16.3377C24.4596 16.3377 25.1672 15.8528 25.357 14.8831H30.1202C29.9131 16.4589 29.2141 17.6797 28.0234 18.5455C26.8326 19.3939 25.1758 19.8182 23.0531 19.8182ZM20.7233 11.1429H25.1758C25.124 9.58442 24.4164 8.8052 23.0531 8.8052C22.4145 8.8052 21.8882 9.00433 21.474 9.4026C21.077 9.80087 20.8268 10.381 20.7233 11.1429Z" fill="black"/>
<path d="M31.8421 19.4805V5.89611H36.9418V8.64935C37.7529 6.65801 39.2026 5.67965 41.2908 5.71429V10.4935C38.3914 10.3377 36.9418 11.2468 36.9418 13.2208V19.4805H31.8421Z" fill="black"/>
<path d="M53.5446 18.6494C52.4228 19.4286 50.861 19.8182 48.8591 19.8182C46.8571 19.8182 45.3039 19.4199 44.1994 18.6234C43.0949 17.8095 42.5254 16.6407 42.4909 15.1169H47.1505C47.2368 15.6017 47.4008 15.9567 47.6424 16.1818C47.884 16.4069 48.2809 16.5195 48.8332 16.5195C49.7824 16.5195 50.2569 16.1991 50.2569 15.5584C50.2569 15.2468 50.0844 15.013 49.7392 14.8571C49.3941 14.684 48.7728 14.5368 47.8754 14.4156C45.9942 14.2078 44.6481 13.7922 43.837 13.1688C43.0259 12.5455 42.6203 11.5238 42.6203 10.1039C42.6203 8.61472 43.1812 7.48052 44.303 6.7013C45.442 5.90476 46.8916 5.50649 48.652 5.50649C52.5005 5.50649 54.5628 7.00433 54.8389 10H50.2569C50.1016 9.15151 49.5925 8.72727 48.7296 8.72727C47.8322 8.72727 47.3835 9.03896 47.3835 9.66234C47.3835 9.97403 47.5475 10.2078 47.8754 10.3636C48.2033 10.5022 48.7469 10.6147 49.5062 10.7013C51.5599 10.9437 53.0268 11.3766 53.907 12C54.7872 12.6061 55.2272 13.619 55.2272 15.039C55.2272 16.6494 54.6663 17.8528 53.5446 18.6494Z" fill="black"/>
<path d="M63.9076 16.052C65.4608 16.052 66.2374 14.9524 66.2374 12.7532V12.5714C66.2374 10.3896 65.4608 9.2987 63.9076 9.2987C62.3026 9.2987 61.5001 10.3636 61.5001 12.4935V12.7013C61.5001 14.9351 62.3026 16.052 63.9076 16.052ZM63.8817 19.8182C61.69 19.8182 59.8865 19.2035 58.4714 17.974C57.0562 16.7273 56.3487 15.0216 56.3487 12.8571V12.6494C56.3487 10.4848 57.0562 8.76191 58.4714 7.48052C59.9038 6.18182 61.7159 5.53247 63.9076 5.53247C66.0821 5.53247 67.8769 6.1645 69.2921 7.42857C70.7072 8.69264 71.4148 10.3896 71.4148 12.5195V12.7273C71.4148 14.9091 70.6986 16.6407 69.2662 17.9221C67.8511 19.1861 66.0562 19.8182 63.8817 19.8182Z" fill="black"/>
<path d="M73.2004 19.4805V5.89611H78.3001V8.07792C79.1975 6.38095 80.6903 5.53247 82.7785 5.53247C84.1074 5.53247 85.1601 5.95671 85.9368 6.80519C86.7306 7.65368 87.1275 8.90043 87.1275 10.5455V19.4805H82.0278V11.6883C82.0278 10.303 81.4583 9.61039 80.3193 9.61039C78.9732 9.61039 78.3001 10.3983 78.3001 11.974V19.4805H73.2004Z" fill="black"/>
<path d="M93.3897 19.8182C92.0609 19.8182 90.9564 19.4805 90.0762 18.8052C89.2133 18.1126 88.7819 17.0823 88.7819 15.7143C88.7819 14.1558 89.3859 13.0303 90.594 12.3377C91.8193 11.6277 93.64 11.2727 96.0561 11.2727H97.221V11.039C97.221 10.381 97.1174 9.88745 96.9104 9.55844C96.7033 9.22944 96.2804 9.06494 95.6419 9.06494C94.6755 9.06494 94.1405 9.54978 94.0369 10.5195H89.2737C89.3773 8.89178 90.0158 7.65368 91.1894 6.80519C92.3802 5.93939 93.9679 5.50649 95.9525 5.50649C97.9717 5.50649 99.5249 5.93939 100.612 6.80519C101.717 7.65368 102.269 8.95238 102.269 10.7013V19.4805H97.3504V17.9221C96.5738 19.1861 95.2536 19.8182 93.3897 19.8182ZM95.2277 16.3896C95.8145 16.3896 96.2891 16.2424 96.6515 15.9481C97.0312 15.6364 97.221 15.2294 97.221 14.7273V14.026H96.1338C95.2709 14.026 94.6668 14.1212 94.3217 14.3117C93.9765 14.5022 93.8039 14.8398 93.8039 15.3247C93.8039 16.0346 94.2785 16.3896 95.2277 16.3896Z" fill="black"/>
<path d="M104.753 19.4805V0H109.827V19.4805H104.753Z" fill="black"/>
<path d="M112.514 19.4805V0H117.588V19.4805H112.514Z" fill="black"/>
<path d="M122.268 24L124.469 18.1299L119.058 5.89611H124.572L127.135 12.6753L129.517 5.89611H134.332L127.109 24H122.268Z" fill="black"/>
</svg>
