<svg width="30" height="30" viewBox="0 0 30 30" fill="none" xmlns="http://www.w3.org/2000/svg">
<path d="M14.9997 26.3334C18.0055 26.3334 20.8881 25.1393 23.0136 23.0139C25.139 20.8885 26.333 18.0058 26.333 15C26.333 11.9943 25.139 9.11158 23.0136 6.98616C20.8881 4.86075 18.0055 3.66671 14.9997 3.66671C11.9939 3.66671 9.11121 4.86075 6.9858 6.98616C4.86039 9.11158 3.66634 11.9943 3.66634 15C3.66634 18.0058 4.86039 20.8885 6.9858 23.0139C9.11121 25.1393 11.9939 26.3334 14.9997 26.3334ZM14.9997 29.1667C7.17543 29.1667 0.833008 22.8243 0.833008 15C0.833008 7.17579 7.17543 0.833374 14.9997 0.833374C22.8239 0.833374 29.1663 7.17579 29.1663 15C29.1663 22.8243 22.8239 29.1667 14.9997 29.1667ZM10.5938 16.6575L7.05501 15.554C6.29001 15.3202 6.28576 14.7932 7.22642 14.415L21.0148 9.08829C21.8153 8.76246 22.2686 9.17471 22.0093 10.2075L19.6619 21.2858C19.4976 22.0749 19.023 22.2633 18.3643 21.8992L14.7503 19.2245L13.0659 20.8509C12.8931 21.018 12.7528 21.1611 12.4865 21.1965C12.2216 21.2334 12.0034 21.154 11.8433 20.7149L10.6108 16.6476L10.5938 16.659V16.6575Z" fill="white"/>
</svg>
