<svg width="30" height="24" viewBox="0 0 30 24" fill="none" xmlns="http://www.w3.org/2000/svg">
<path d="M28.5189 4.20552C29.1663 6.73002 29.1663 12 29.1663 12C29.1663 12 29.1663 17.27 28.5189 19.7945C28.1591 21.1899 27.1065 22.2879 25.7734 22.659C23.3523 23.3334 14.9997 23.3334 14.9997 23.3334C14.9997 23.3334 6.65126 23.3334 4.22592 22.659C2.88717 22.2822 1.83601 21.1857 1.48042 19.7945C0.833008 17.27 0.833008 12 0.833008 12C0.833008 12 0.833008 6.73002 1.48042 4.20552C1.84026 2.8101 2.89284 1.71219 4.22592 1.34102C6.65126 0.666687 14.9997 0.666687 14.9997 0.666687C14.9997 0.666687 23.3523 0.666687 25.7734 1.34102C27.1122 1.71785 28.1633 2.81435 28.5189 4.20552ZM12.1663 16.9584L20.6663 12L12.1663 7.04169V16.9584Z" fill="white"/>
</svg>
